<mxfile host="app.diagrams.net" modified="2023-09-08T11:29:11.083Z" agent="Mozilla/5.0 (Macintosh; Intel Mac OS X 10_15_7) AppleWebKit/537.36 (KHTML, like Gecko) Chrome/116.0.0.0 Safari/537.36" version="21.7.2" etag="3Qzve0meD1VZ2Lof2HQn" type="github">
  <diagram name="Page-1" id="a5A2oRKdwIqr3Y4dDVKV">
    <mxGraphModel>
      <root>
        <mxCell id="0" />
        <mxCell id="1" parent="0" />
      </root>
    </mxGraphModel>
  </diagram>
</mxfile>
